<?xml version="1.0" encoding="iso-8859-1"?>
<!DOCTYPE svg PUBLIC "-//W3C//DTD SVG 1.1//EN" "http://www.w3.org/Graphics/SVG/1.1/DTD/svg11.dtd">
<svg version="1.1" id="Capa_1" xmlns="http://www.w3.org/2000/svg" xmlns:xlink="http://www.w3.org/1999/xlink" x="0px" y="0px"
	 width="48px" height="48px" viewBox="0 0 32 32" style="enable-background:new 0 0 32 32;" xml:space="preserve" fill="white">
<g>
	<path d="M29.238,4.27c-0.48-0.013-0.956,0.036-1.411,0.132c-0.456,0.095-0.896,0.228-1.308,0.399
		c-0.412,0.172-0.81,0.361-1.177,0.589c-0.368,0.225-0.718,0.467-1.051,0.721c-0.668,0.506-1.265,1.071-1.813,1.665
		c-0.554,0.591-1.062,1.208-1.541,1.84c-0.476,0.635-0.929,1.279-1.367,1.929c-0.432,0.653-0.846,1.316-1.258,1.978l-0.605,0.996
		l-0.596,1c-0.271,0.471-0.543,0.941-0.809,1.415c-0.044-0.564-0.095-1.041-0.131-1.348c0.369-0.09,0.645-0.421,0.645-0.816
		c0-0.407-0.289-0.747-0.674-0.826c0.233-1.054,0.789-2.262,1.127-2.454c0.147-0.085,0.28-0.107,0.396-0.066
		c0.206,0.073,0.33,0.343,0.371,0.431c0.023,0.051,0.025,0.102,0.007,0.152c-0.047,0.124-0.196,0.221-0.313,0.265
		c-0.178,0.069-0.229,0.052-0.314-0.106c-0.023-0.044-0.025-0.08-0.008-0.119c0.037-0.085,0.152-0.146,0.222-0.157l-0.039-0.163
		c-0.118,0.021-0.274,0.112-0.335,0.244c-0.037,0.084-0.031,0.176,0.016,0.263c0.148,0.271,0.313,0.273,0.529,0.189
		c0.151-0.059,0.336-0.181,0.398-0.351c0.033-0.091,0.029-0.188-0.014-0.278c-0.049-0.105-0.197-0.427-0.476-0.526
		c-0.163-0.058-0.342-0.032-0.53,0.075c-0.38,0.217-0.973,1.472-1.208,2.583c-0.02,0-0.036,0.004-0.055,0.005
		c-0.067-1.067-0.319-2.338-0.734-2.575c-0.188-0.106-0.361-0.134-0.514-0.081c-0.235,0.081-0.357,0.323-0.429,0.499
		c-0.021,0.053-0.029,0.106-0.024,0.16c0.004,0.036,0.013,0.072,0.028,0.108c0.07,0.164,0.254,0.286,0.403,0.346
		c0.213,0.084,0.37,0.084,0.498-0.175c0.041-0.084,0.041-0.171,0-0.254c-0.064-0.127-0.222-0.219-0.336-0.24l-0.028,0.156
		c0.066,0.013,0.181,0.073,0.223,0.155c0.019,0.038,0.019,0.073-0.001,0.112c-0.074,0.151-0.122,0.167-0.298,0.097
		c-0.113-0.045-0.264-0.14-0.315-0.26c-0.021-0.05-0.022-0.098-0.002-0.146c0.033-0.084,0.139-0.342,0.333-0.409
		c0.108-0.037,0.237-0.015,0.384,0.069c0.336,0.191,0.586,1.416,0.653,2.463c-0.361,0.095-0.629,0.421-0.629,0.813
		c0,0.374,0.246,0.688,0.584,0.798c-0.046,0.2-0.108,0.513-0.16,0.928c-0.22-0.388-0.443-0.772-0.666-1.158l-0.595-1.002
		l-0.606-0.995c-0.411-0.661-0.825-1.323-1.258-1.977c-0.438-0.649-0.892-1.295-1.367-1.93c-0.479-0.632-0.987-1.249-1.54-1.84
		C8.971,7,8.375,6.435,7.707,5.929C7.374,5.675,7.025,5.433,6.656,5.208C6.289,4.982,5.893,4.791,5.48,4.619
		C5.067,4.447,4.629,4.315,4.173,4.22C3.718,4.125,3.242,4.076,2.761,4.089L0,4.158l1.912,2.085c0.512,0.559,1.069,1.077,1.582,1.56
		C3.746,8.045,3.997,8.27,4.192,8.485c0.204,0.214,0.345,0.409,0.449,0.582C4.74,9.242,4.802,9.42,4.837,9.651
		C4.879,9.88,4.883,10.16,4.864,10.46c-0.022,0.299-0.054,0.621-0.109,0.948l-0.003,0.015l-0.016,0.081l-0.001,0.008l-0.003,0.034
		l-0.006,0.067l-0.015,0.135l-0.026,0.271c-0.015,0.184-0.021,0.419-0.029,0.625c-0.006,0.417,0.019,0.82,0.068,1.232
		c0.061,0.411,0.136,0.821,0.274,1.22c0.123,0.4,0.313,0.785,0.516,1.149c0.215,0.36,0.468,0.695,0.748,0.998
		c0.57,0.599,1.251,1.05,1.963,1.358c0.129,0.059,0.259,0.107,0.389,0.157c-0.533,0.22-1.084,0.513-1.611,0.99
		c-0.384,0.344-0.761,0.809-0.994,1.397C5.892,21.44,5.816,21.76,5.787,22.08l-0.009,0.119L5.774,22.26l-0.001,0.015l0.001,0.053
		l-0.001,0.019L5.774,22.5l0.002,0.313c0.03,0.546,0.09,1.042,0.251,1.567c0.158,0.521,0.418,1.055,0.781,1.52
		c0.367,0.465,0.829,0.848,1.309,1.125c0.481,0.279,0.978,0.452,1.452,0.58l0.179,0.048l0.077,0.019l0.019,0.003l0.038,0.007
		l0.082,0.016c0.11,0.019,0.233,0.03,0.335,0.034c0.094,0,0.188,0.002,0.279-0.006c0.369-0.024,0.712-0.127,1.003-0.259
		c0.582-0.271,0.984-0.635,1.313-0.986c0.331-0.354,0.592-0.716,0.807-1.08c0.219-0.36,0.402-0.718,0.569-1.064
		c0.34-0.69,0.566-1.366,0.766-1.986c0.204-0.617,0.338-1.197,0.451-1.708c0.041-0.177,0.075-0.344,0.105-0.506
		c0.153,1.235,0.381,2.242,0.381,2.242s0.236-1.244,0.352-2.551c0.047,0.297,0.104,0.631,0.188,0.995
		c0.113,0.512,0.248,1.091,0.451,1.707c0.199,0.62,0.426,1.298,0.766,1.987c0.168,0.348,0.352,0.703,0.569,1.064
		c0.216,0.364,0.476,0.726,0.808,1.08c0.328,0.353,0.73,0.716,1.312,0.985c0.291,0.133,0.635,0.233,1.003,0.26
		c0.093,0.009,0.187,0.006,0.279,0.006c0.103-0.003,0.225-0.017,0.335-0.033l0.082-0.017l0.038-0.007l0.019-0.004l0.077-0.018
		l0.179-0.047c0.476-0.128,0.971-0.303,1.452-0.581c0.479-0.277,0.942-0.659,1.31-1.123c0.363-0.467,0.623-0.999,0.781-1.521
		c0.16-0.525,0.221-1.021,0.25-1.567l0.002-0.314l0.002-0.153l-0.002-0.02l0.002-0.051l-0.002-0.017l-0.004-0.06l-0.009-0.12
		c-0.028-0.318-0.104-0.639-0.221-0.931c-0.234-0.593-0.611-1.057-0.995-1.4c-0.527-0.476-1.078-0.77-1.611-0.99
		c0.131-0.05,0.26-0.099,0.389-0.156c0.713-0.311,1.394-0.761,1.963-1.358c0.281-0.302,0.533-0.637,0.748-0.998
		c0.205-0.365,0.394-0.749,0.517-1.149c0.14-0.396,0.214-0.809,0.274-1.22c0.049-0.413,0.072-0.815,0.066-1.233
		c-0.008-0.205-0.014-0.439-0.027-0.625l-0.026-0.27l-0.015-0.135l-0.008-0.067l-0.002-0.033l-0.002-0.008l-0.016-0.08l-0.003-0.017
		c-0.056-0.327-0.087-0.648-0.108-0.948c-0.02-0.299-0.016-0.58,0.026-0.808c0.035-0.232,0.099-0.409,0.196-0.585
		c0.104-0.173,0.244-0.367,0.447-0.582c0.195-0.215,0.446-0.439,0.698-0.682c0.513-0.482,1.07-1.002,1.582-1.561L32,4.34
		L29.238,4.27z M8.498,18.104c-0.622-0.343-1.182-0.797-1.621-1.35c-0.216-0.279-0.404-0.578-0.559-0.896
		c-0.143-0.32-0.273-0.65-0.347-0.997c-0.086-0.343-0.127-0.696-0.152-1.05c-0.014-0.354-0.009-0.71,0.022-1.063
		c0.021-0.177,0.033-0.351,0.062-0.529l0.09-0.525c0.082-0.355,0.153-0.713,0.197-1.079c0.043-0.364,0.065-0.735,0.024-1.109
		C6.18,9.133,6.077,8.761,5.906,8.423C5.734,8.086,5.505,7.786,5.258,7.515C5.01,7.241,4.747,6.989,4.481,6.744
		c-0.449-0.413-0.894-0.825-1.325-1.25c0.643,0.013,1.283,0.137,1.896,0.349c0.72,0.247,1.399,0.609,2.042,1.024
		c1.285,0.839,2.422,1.895,3.467,3.025c1.044,1.134,1.996,2.354,2.885,3.615c0.738,1.055,1.435,2.14,2.078,3.253
		c-0.036,0.353-0.062,0.765-0.066,1.229c-0.2-0.021-0.491-0.062-0.859-0.078c-0.376-0.021-0.835-0.046-1.36-0.025
		c-0.526,0.013-1.125,0.039-1.775,0.135c-0.651,0.09-1.366,0.212-2.115,0.466c-0.002,0.001-0.004,0.002-0.006,0.003
		C9.052,18.379,8.769,18.253,8.498,18.104z M15.353,19.18c-0.241,0.689-0.608,1.669-1.12,2.81c-0.258,0.569-0.555,1.181-0.914,1.797
		c-0.361,0.613-0.778,1.248-1.321,1.788c-0.271,0.271-0.581,0.511-0.932,0.656c-0.175,0.071-0.359,0.117-0.546,0.124
		c-0.094,0.004-0.186-0.004-0.272-0.016l-0.144-0.031l-0.146-0.043c-0.771-0.222-1.52-0.617-2.009-1.257
		c-0.246-0.314-0.435-0.676-0.556-1.062c-0.12-0.385-0.186-0.787-0.218-1.184c-0.006-0.199-0.023-0.424-0.014-0.604
		c0.01-0.191,0.048-0.38,0.111-0.56c0.127-0.356,0.353-0.675,0.623-0.938c0.545-0.53,1.223-0.883,1.874-1.158
		c0.656-0.274,1.305-0.473,1.909-0.628c1.211-0.309,2.243-0.475,2.967-0.57c0.136-0.018,0.26-0.033,0.373-0.047
		c0.019,0.001,0.037,0,0.056,0c0.131,0.006,0.259,0.025,0.382,0.056c0.002,0.168,0.008,0.339,0.017,0.509
		C15.438,18.934,15.398,19.049,15.353,19.18z M24.104,20.844c0.271,0.265,0.496,0.582,0.623,0.938
		c0.063,0.181,0.103,0.367,0.111,0.56c0.01,0.181-0.008,0.403-0.014,0.603c-0.032,0.396-0.098,0.801-0.219,1.186
		s-0.31,0.746-0.556,1.061c-0.489,0.64-1.237,1.034-2.009,1.257l-0.146,0.043l-0.144,0.03c-0.087,0.012-0.179,0.021-0.272,0.017
		c-0.187-0.008-0.371-0.053-0.545-0.124c-0.352-0.146-0.66-0.388-0.933-0.655c-0.543-0.541-0.96-1.175-1.321-1.789
		c-0.357-0.617-0.656-1.227-0.914-1.796c-0.512-1.143-0.879-2.12-1.119-2.812c-0.117-0.335-0.203-0.599-0.263-0.783
		c0-0.013-0.001-0.023-0.001-0.035c0.164-0.065,0.354-0.094,0.54-0.101c0.019-0.001,0.037,0.001,0.056,0
		c0.113,0.015,0.237,0.028,0.373,0.047c0.725,0.098,1.758,0.264,2.967,0.57c0.604,0.156,1.254,0.354,1.91,0.627
		C22.881,19.963,23.559,20.314,24.104,20.844z M27.52,6.926c-0.267,0.246-0.528,0.497-0.776,0.77
		c-0.247,0.272-0.478,0.572-0.647,0.91c-0.172,0.338-0.273,0.709-0.31,1.082c-0.041,0.373-0.019,0.745,0.024,1.109
		c0.045,0.364,0.114,0.724,0.197,1.078l0.09,0.526c0.029,0.177,0.041,0.351,0.062,0.527c0.031,0.354,0.035,0.71,0.021,1.063
		c-0.025,0.354-0.066,0.706-0.152,1.049c-0.073,0.347-0.204,0.676-0.348,0.998c-0.154,0.316-0.342,0.616-0.559,0.896
		c-0.439,0.553-0.999,1.006-1.621,1.351c-0.271,0.148-0.554,0.273-0.843,0.384c-0.002,0-0.005-0.001-0.007-0.002
		c-0.748-0.254-1.463-0.377-2.114-0.467c-0.649-0.096-1.249-0.122-1.774-0.136c-0.525-0.019-0.984,0.007-1.361,0.026
		c-0.375,0.017-0.67,0.06-0.87,0.081c-0.062,0.008-0.11,0.015-0.154,0.021c-0.013-0.342-0.03-0.673-0.053-0.982
		c0.685-1.208,1.434-2.383,2.229-3.521c0.889-1.263,1.842-2.482,2.885-3.616c1.045-1.13,2.183-2.187,3.468-3.025
		c0.643-0.415,1.321-0.775,2.043-1.024c0.61-0.212,1.252-0.335,1.896-0.348C28.412,6.101,27.968,6.512,27.52,6.926z"/>
</g>
<g>
</g>
<g>
</g>
<g>
</g>
<g>
</g>
<g>
</g>
<g>
</g>
<g>
</g>
<g>
</g>
<g>
</g>
<g>
</g>
<g>
</g>
<g>
</g>
<g>
</g>
<g>
</g>
<g>
</g>
</svg>
